<?xml version="1.0" encoding="UTF-8"?>
<svg
  width="1200pt"
  height="1200pt"
  version="1.1"
  viewBox="0 0 1200 1200"
  xmlns="http://www.w3.org/2000/svg"
  className="fill-white"
>
 <g>
  <path fill="fill-white" d="m759.48 406.61 59.953 159.31 59.973-159.31z"/>
  <path d="m660.62 144.05 89.809 238.56h138.02l90.168-239.62z"/>
  <path d="m380.54 565.95 59.977-159.34h-119.95z"/>
  <path d="m475.2 382.61h249.58l-89.664-238.2-39.914-0.14062-30.312 0.11719z"/>
  <path d="m285.89 382.61-85.078-226.04-156.41 226.04z"/>
  <path d="m733.8 793.39 72.793-193.39-72.793-193.39h-267.62l-72.793 193.39 72.793 193.39z"/>
  <path d="m914.09 817.39 85.078 226.04 156.43-226.04z"/>
  <path d="m311.52 382.61h138.02l89.809-238.54-318-1.0781z"/>
  <path d="m367.73 600-72.789-193.39h-256.06l147.07 386.78h108.98z"/>
  <path d="m914.09 382.61h94.988l-19.918-199.44z"/>
  <path d="m759.46 793.39h119.95l-59.973-159.34z"/>
  <path d="m1014 406.61h-109.01l-72.793 193.39 72.793 193.39h256.08z"/>
  <path d="m285.91 817.39h-94.965l19.895 199.42z"/>
  <path d="m539.35 1055.9-89.809-238.51h-138l-90.191 239.59z"/>
  <path d="m380.54 634.08-59.977 159.31h119.95z"/>
  <path d="m724.78 817.39h-249.58l89.688 238.25 25.176 0.070313 45.051-0.14453z"/>
  <path d="m888.43 817.39h-138l-89.832 238.56 318.02 1.0547z"/>
 </g>
</svg>